<svg width="100" height="763" viewBox="0 0 100 763" fill="none" xmlns="http://www.w3.org/2000/svg">
<path d="M39.5997 703.062C47.64 703.062 54.362 704.609 59.7657 707.701C65.1368 710.761 69.1895 715.204 71.9239 721.031C74.6257 726.858 75.9766 733.873 75.9766 742.076L75.9766 762.291L4.5899 762.291L4.5899 739.879C4.5899 732.392 5.92454 725.898 8.59381 720.396C11.2305 714.895 15.1531 710.631 20.3614 707.604C25.5372 704.576 31.9499 703.062 39.5997 703.062ZM39.9903 718.785C34.7169 718.785 30.3874 719.566 27.002 721.129C23.584 722.659 21.0613 724.937 19.4337 727.965C17.806 730.96 16.9922 734.671 16.9922 739.098L16.9922 747.154L63.4766 747.154L63.4766 740.66C63.4766 733.271 61.5072 727.786 57.5684 724.205C53.6296 720.592 47.7702 718.785 39.9903 718.785ZM20.3614 633.93C20.3614 628.884 21.3379 624.538 23.2911 620.893C25.2116 617.247 28.0111 614.431 31.6895 612.445C35.3679 610.46 39.8601 609.467 45.1661 609.467L52.3926 609.467L52.3926 644.672C56.5919 644.509 59.8959 643.256 62.3047 640.912C64.681 638.536 65.8692 635.248 65.8692 631.049C65.8692 627.566 65.5111 624.376 64.795 621.479C64.0788 618.581 63.0046 615.603 61.5723 612.543L73.0958 612.543C74.4304 615.245 75.407 618.077 76.0254 621.039C76.6439 623.969 76.9532 627.533 76.9532 631.732C76.9532 637.201 75.9441 642.051 73.9258 646.283C71.9076 650.482 68.8314 653.786 64.6973 656.195C60.5632 658.572 55.3549 659.76 49.0723 659.76C42.6921 659.76 37.3861 658.686 33.1544 656.537C28.89 654.356 25.6999 651.329 23.584 647.455C21.4356 643.581 20.3614 639.073 20.3614 633.93ZM30.9571 633.832C30.9571 636.729 31.8848 639.138 33.7403 641.059C35.5958 642.947 38.5092 644.037 42.4805 644.33L42.4805 623.432C40.267 623.464 38.2976 623.871 36.5723 624.652C34.8471 625.401 33.4799 626.54 32.4708 628.07C31.4616 629.568 30.9571 631.488 30.9571 633.832ZM75.9766 551.369L21.3868 572.17L21.3868 556.594L52.4903 546.047C54.3132 545.461 56.2338 545.005 58.252 544.68C60.2702 544.322 62.0769 544.077 63.6719 543.947L63.6719 543.557C61.9467 543.459 60.1075 543.231 58.1543 542.873C56.2012 542.482 54.3132 541.978 52.4903 541.359L21.3868 530.861L21.3868 515.285L75.9766 536.086L75.9766 551.369ZM20.3614 451.914C20.3614 446.868 21.3379 442.523 23.2911 438.877C25.2116 435.231 28.0111 432.415 31.6895 430.43C35.3679 428.444 39.8601 427.451 45.1661 427.451L52.3926 427.451L52.3926 462.656C56.5918 462.493 59.8959 461.24 62.3047 458.896C64.681 456.52 65.8692 453.232 65.8692 449.033C65.8692 445.55 65.5111 442.36 64.795 439.463C64.0788 436.566 63.0046 433.587 61.5723 430.527L73.0957 430.527C74.4304 433.229 75.4069 436.061 76.0254 439.023C76.6439 441.953 76.9532 445.518 76.9532 449.717C76.9532 455.186 75.9441 460.036 73.9258 464.268C71.9076 468.467 68.8314 471.771 64.6973 474.18C60.5632 476.556 55.3549 477.744 49.0723 477.744C42.6921 477.744 37.3861 476.67 33.1543 474.521C28.89 472.34 25.6999 469.313 23.584 465.439C21.4356 461.566 20.3614 457.057 20.3614 451.914ZM30.9571 451.816C30.9571 454.714 31.8848 457.122 33.7403 459.043C35.5958 460.931 38.5092 462.021 42.4805 462.314L42.4805 441.416C40.267 441.449 38.2976 441.855 36.5723 442.637C34.8471 443.385 33.4799 444.525 32.4707 446.055C31.4616 447.552 30.9571 449.473 30.9571 451.816ZM75.9766 367.449L75.9766 382.342L4.40343e-05 382.342L4.33834e-05 367.449L75.9766 367.449ZM48.584 269.166C53.1413 269.166 57.1778 269.785 60.6934 271.021C64.209 272.226 67.1875 274 69.6289 276.344C72.0378 278.655 73.8607 281.454 75.0977 284.742C76.3347 287.997 76.9532 291.676 76.9532 295.777C76.9532 299.618 76.3347 303.15 75.0977 306.373C73.8607 309.563 72.0378 312.346 69.6289 314.723C67.1875 317.066 64.209 318.889 60.6934 320.191C57.1778 321.461 53.1413 322.096 48.584 322.096C42.5293 322.096 37.4024 321.021 33.2032 318.873C29.0039 316.725 25.8138 313.665 23.6329 309.693C21.4519 305.722 20.3614 300.986 20.3614 295.484C20.3614 290.374 21.4519 285.849 23.6329 281.91C25.8138 277.939 29.0039 274.83 33.2032 272.584C37.4024 270.305 42.5293 269.166 48.584 269.166ZM48.584 306.91C52.1648 306.91 55.1758 306.52 57.6172 305.738C60.0586 304.957 61.8978 303.736 63.1348 302.076C64.3718 300.416 64.9903 298.251 64.9903 295.582C64.9903 292.945 64.3718 290.813 63.1348 289.186C61.8978 287.525 60.0586 286.321 57.6172 285.572C55.1758 284.791 52.1648 284.4 48.584 284.4C44.9707 284.4 41.976 284.791 39.5996 285.572C37.1908 286.321 35.3842 287.525 34.1797 289.186C32.9753 290.846 32.3731 293.01 32.3731 295.68C32.3731 299.618 33.724 302.483 36.4258 304.273C39.1276 306.031 43.1804 306.91 48.584 306.91ZM20.3614 193.49C20.3614 187.338 22.7539 182.374 27.5391 178.598C32.3243 174.789 39.3392 172.885 48.584 172.885C54.7689 172.885 59.9772 173.78 64.209 175.57C68.4082 177.361 71.5821 179.835 73.7305 182.992C75.8789 186.15 76.9532 189.779 76.9532 193.881C76.9532 196.518 76.6276 198.78 75.9766 200.668C75.293 202.556 74.4304 204.167 73.3887 205.502C72.3145 206.837 71.1752 207.992 69.9707 208.969L69.9707 209.75C71.2728 209.49 72.6075 209.294 73.9746 209.164C75.3418 209.034 76.6765 208.969 77.9786 208.969L100 208.969L100 223.861L21.3868 223.861L21.3868 211.752L28.4668 209.652L28.4668 208.969C27.002 207.992 25.6511 206.804 24.4141 205.404C23.1771 204.005 22.2006 202.328 21.4844 200.375C20.7357 198.389 20.3614 196.094 20.3614 193.49ZM32.2754 198.275C32.2754 200.88 32.8125 202.947 33.8868 204.477C34.961 206.007 36.5723 207.13 38.7207 207.846C40.8692 208.529 43.5873 208.904 46.875 208.969L48.4864 208.969C52.002 208.969 54.9805 208.643 57.4219 207.992C59.8633 207.309 61.7188 206.186 62.9883 204.623C64.2578 203.028 64.8926 200.847 64.8926 198.08C64.8926 195.801 64.2578 193.93 62.9883 192.465C61.7188 191 59.8633 189.91 57.4219 189.193C54.948 188.445 51.9369 188.07 48.3887 188.07C43.0502 188.07 39.03 188.9 36.3282 190.561C33.6263 192.221 32.2754 194.792 32.2754 198.275ZM20.3614 105.07C20.3614 100.025 21.3379 95.679 23.291 92.0332C25.2116 88.3874 28.0111 85.5716 31.6895 83.5859C35.3679 81.6003 39.8601 80.6074 45.166 80.6074L52.3926 80.6074L52.3926 115.812C56.5918 115.65 59.8959 114.396 62.3047 112.053C64.681 109.676 65.8692 106.389 65.8692 102.189C65.8692 98.7064 65.5111 95.5163 64.795 92.6191C64.0788 89.722 63.0046 86.7435 61.5723 83.6836L73.0957 83.6836C74.4304 86.3854 75.4069 89.2174 76.0254 92.1797C76.6439 95.1094 76.9532 98.6738 76.9532 102.873C76.9532 108.342 75.944 113.192 73.9258 117.424C71.9076 121.623 68.8314 124.927 64.6973 127.336C60.5632 129.712 55.3549 130.9 49.0723 130.9C42.6921 130.9 37.3861 129.826 33.1543 127.678C28.89 125.497 25.6999 122.469 23.584 118.596C21.4356 114.722 20.3614 110.214 20.3614 105.07ZM30.9571 104.973C30.9571 107.87 31.8848 110.279 33.7403 112.199C35.5957 114.087 38.5091 115.178 42.4805 115.471L42.4805 94.5723C40.267 94.6048 38.2976 95.0117 36.5723 95.793C34.847 96.5417 33.4798 97.681 32.4707 99.2109C31.4616 100.708 30.9571 102.629 30.9571 104.973ZM20.3614 5.02929C20.3614 4.2806 20.4102 3.41797 20.5078 2.4414C20.5729 1.43229 20.6706 0.618487 20.8008 -2.26531e-06L34.7657 1.12304C34.6029 1.61133 34.489 2.3112 34.4239 3.22265C34.3262 4.10156 34.2774 4.86653 34.2774 5.51758C34.2774 7.43815 34.5215 9.30989 35.0098 11.1328C35.4981 12.9232 36.2956 14.5345 37.4024 15.9668C38.4766 17.3991 39.9089 18.5384 41.6992 19.3848C43.4571 20.1986 45.6218 20.6055 48.1934 20.6055L75.9766 20.6055L75.9766 35.498L21.3867 35.498L21.3867 24.2187L30.5664 22.0215L30.5664 21.2891C28.711 20.2148 27.0183 18.8802 25.4883 17.2852C23.9258 15.6575 22.6888 13.8184 21.7774 11.7676C20.8334 9.68424 20.3614 7.43815 20.3614 5.02929Z" fill="#181818" fill-opacity="0.15"/>
</svg>
