<svg width="50" height="36" viewBox="0 0 50 36" fill="none" xmlns="http://www.w3.org/2000/svg">
<path d="M49.9256 17.8694C49.9256 15.2115 45.7838 12.6926 39.4337 11.1305C40.8991 5.9292 40.2478 1.79103 37.3781 0.466158C36.7166 0.155386 35.9432 0.00817808 35.0985 0.00817808V1.83192C35.5667 1.83192 35.9432 1.90552 36.2587 2.04455C37.6427 2.68245 38.2431 5.11138 37.775 8.23545C37.663 9.0042 37.4798 9.81385 37.256 10.6398C35.2614 10.2473 33.0836 9.9447 30.7939 9.74842C29.4201 8.23545 27.9954 6.86152 26.5605 5.65932C29.878 3.18132 32.992 1.82374 35.1087 1.82374V0C32.3102 0 28.6467 1.60293 24.9425 4.38352C21.2382 1.61929 17.5747 0.032713 14.7762 0.032713V1.85645C16.8827 1.85645 20.0069 3.20586 23.3244 5.6675C21.8997 6.86969 20.475 8.23545 19.1215 9.74842C16.8217 9.9447 14.6439 10.2473 12.6493 10.648C12.4153 9.8302 12.2423 9.03692 12.1201 8.27634C11.6419 5.15227 12.2321 2.72334 13.6059 2.07726C13.9112 1.93006 14.3081 1.86463 14.7762 1.86463V0.040891C13.9214 0.040891 13.148 0.188099 12.4763 0.49887C9.61674 1.82374 8.97562 5.95373 10.4512 11.1387C4.12146 12.7089 0 15.2196 0 17.8694C0 20.5273 4.14181 23.0462 10.4919 24.6082C9.0265 29.8096 9.6778 33.9477 12.5476 35.2726C13.209 35.5834 13.9824 35.7306 14.8373 35.7306C17.6358 35.7306 21.2993 34.1277 25.0035 31.3471C28.7077 34.1113 32.3713 35.6979 35.1698 35.6979C36.0246 35.6979 36.798 35.5507 37.4697 35.2399C40.3292 33.915 40.9704 29.785 39.4948 24.6C45.8042 23.038 49.9256 20.5191 49.9256 17.8694ZM36.6759 12.4145C36.2994 13.4695 35.8313 14.5572 35.3021 15.6449C34.8848 14.9907 34.4473 14.3364 33.969 13.6821C33.5009 13.0279 33.0022 12.39 32.5036 11.7684C33.9486 11.9402 35.3428 12.1528 36.6759 12.4145ZM32.0151 21.1243C31.2213 22.2284 30.4072 23.2752 29.5626 24.2484C28.0463 24.3547 26.5096 24.4119 24.9628 24.4119C23.4262 24.4119 21.8895 24.3547 20.3834 24.2566C19.5388 23.2834 18.7145 22.2447 17.9207 21.1488C17.1473 20.0775 16.4451 18.9898 15.804 17.8939C16.435 16.798 17.1473 15.7022 17.9105 14.6308C18.7043 13.5268 19.5184 12.4799 20.3631 11.5067C21.8794 11.4004 23.416 11.3432 24.9628 11.3432C26.4995 11.3432 28.0361 11.4004 29.5422 11.4986C30.3869 12.4718 31.2112 13.5104 32.0049 14.6063C32.7783 15.6776 33.4805 16.7653 34.1216 17.8612C33.4805 18.9571 32.7783 20.053 32.0151 21.1243ZM35.3021 20.0611C35.8516 21.157 36.3197 22.2529 36.7064 23.3161C35.3733 23.5778 33.969 23.7986 32.5137 23.9703C33.0124 23.3406 33.511 22.6945 33.9791 22.0321C34.4473 21.3778 34.8848 20.7154 35.3021 20.0611ZM24.9832 28.7873C24.0368 28.0022 23.0903 27.1271 22.1541 26.1703C23.07 26.203 24.0062 26.2275 24.9526 26.2275C25.9092 26.2275 26.8556 26.2112 27.7817 26.1703C26.8658 27.1271 25.9194 28.0022 24.9832 28.7873ZM17.4119 23.9703C15.9668 23.7986 14.5727 23.5859 13.2396 23.3242C13.6161 22.2693 14.0842 21.1816 14.6134 20.0939C15.0306 20.7481 15.4682 21.4024 15.9465 22.0566C16.4248 22.7109 16.9132 23.3488 17.4119 23.9703ZM24.9323 6.95148C25.8787 7.73658 26.8251 8.61165 27.7613 9.5685C26.8455 9.53579 25.9092 9.51125 24.9628 9.51125C24.0062 9.51125 23.0598 9.52761 22.1338 9.5685C23.0496 8.61165 23.9961 7.73658 24.9323 6.95148ZM17.4017 11.7684C16.9031 12.3982 16.4044 13.0442 15.9363 13.7067C15.4682 14.3609 15.0306 15.0152 14.6134 15.6694C14.0638 14.5736 13.5957 13.4777 13.209 12.4145C14.5421 12.161 15.9465 11.9402 17.4017 11.7684ZM8.19204 22.0076C4.58958 20.7726 2.25917 19.1534 2.25917 17.8694C2.25917 16.5854 4.58958 14.9579 8.19204 13.7312C9.06721 13.4286 10.0238 13.1587 11.0109 12.9052C11.591 14.5081 12.3542 16.1765 13.3006 17.8857C12.3644 19.5868 11.6113 21.247 11.0414 22.8417C10.034 22.5882 9.07739 22.3101 8.19204 22.0076ZM13.667 33.6942C12.283 33.0563 11.6826 30.6274 12.1507 27.5033C12.2626 26.7346 12.4458 25.9249 12.6697 25.0989C14.6643 25.4915 16.842 25.7941 19.1317 25.9903C20.5055 27.5033 21.9302 28.8772 23.3651 30.0794C20.0476 32.5574 16.9336 33.915 14.8169 33.915C14.359 33.9068 13.9723 33.8332 13.667 33.6942ZM37.8055 27.4624C38.2838 30.5865 37.6935 33.0154 36.3197 33.6615C36.0144 33.8087 35.6175 33.8741 35.1494 33.8741C33.0429 33.8741 29.9187 32.5247 26.6012 30.0631C28.0259 28.8609 29.4506 27.4951 30.8041 25.9822C33.104 25.7859 35.2817 25.4833 37.2763 25.0826C37.5104 25.9086 37.6935 26.7018 37.8055 27.4624ZM41.7234 22.0076C40.8482 22.3101 39.8917 22.58 38.9045 22.8336C38.3245 21.2306 37.5613 19.5623 36.6148 17.853C37.5511 16.152 38.3041 14.4918 38.874 12.897C39.8815 13.1506 40.8381 13.4286 41.7336 13.7312C45.3361 14.9661 47.6665 16.5854 47.6665 17.8694C47.6563 19.1534 45.3259 20.7808 41.7234 22.0076Z" fill="#61DAFB"/>
<path d="M24.9526 21.6068C27.5211 21.6068 29.6033 19.9335 29.6033 17.8694C29.6033 15.8053 27.5211 14.132 24.9526 14.132C22.3842 14.132 20.302 15.8053 20.302 17.8694C20.302 19.9335 22.3842 21.6068 24.9526 21.6068Z" fill="#61DAFB"/>
</svg>
