<svg width="117" height="43" viewBox="0 0 117 43" fill="none" xmlns="http://www.w3.org/2000/svg">
<path d="M13.9966 32.124L7.42676 8.98682H7.229C7.2876 9.5874 7.34619 10.4004 7.40479 11.4258C7.47803 12.4512 7.54395 13.5571 7.60254 14.7437C7.66113 15.9302 7.69043 17.0728 7.69043 18.1714V32.124H0V0H11.5576L18.2593 22.8076H18.4351L25.0049 0H36.5845V32.124H28.6084V18.0396C28.6084 17.0288 28.623 15.9448 28.6523 14.7876C28.6963 13.6157 28.7402 12.5171 28.7842 11.4917C28.8428 10.4517 28.894 9.63135 28.938 9.03076H28.7402L22.2583 32.124H13.9966ZM55.1514 6.78955C58.3008 6.78955 60.7617 7.57324 62.5342 9.14062C64.3066 10.6934 65.1929 12.9126 65.1929 15.7983V32.124H59.2383L57.5903 28.8281H57.4146C56.7114 29.707 55.9863 30.4248 55.2393 30.9814C54.5068 31.5234 53.6646 31.9189 52.7124 32.168C51.7603 32.4316 50.5957 32.5635 49.2188 32.5635C47.7832 32.5635 46.4941 32.2705 45.3516 31.6846C44.209 31.0986 43.3081 30.2124 42.6489 29.0259C41.9897 27.8394 41.6602 26.3379 41.6602 24.5215C41.6602 21.8555 42.583 19.8779 44.4287 18.5889C46.2744 17.2998 48.9478 16.5747 52.4487 16.4136L56.6016 16.2817V15.9302C56.6016 14.8169 56.3232 14.0259 55.7666 13.5571C55.2246 13.0884 54.4922 12.854 53.5693 12.854C52.5879 12.854 51.4893 13.0298 50.2734 13.3813C49.0723 13.7183 47.8638 14.1577 46.6479 14.6997L44.165 9.03076C45.6006 8.29834 47.2266 7.7417 49.043 7.36084C50.8594 6.97998 52.8955 6.78955 55.1514 6.78955ZM56.6455 21.0059L54.668 21.0938C53.0859 21.1523 51.9727 21.4307 51.3281 21.9287C50.6982 22.4121 50.3833 23.1079 50.3833 24.0161C50.3833 24.8657 50.6104 25.4956 51.0645 25.9058C51.5186 26.3013 52.1191 26.499 52.8662 26.499C53.9062 26.499 54.7925 26.1694 55.5249 25.5103C56.272 24.8511 56.6455 23.9941 56.6455 22.9395V21.0059ZM89.165 7.229H98.2178L102.437 21.5112C102.495 21.7163 102.554 21.9727 102.612 22.2803C102.671 22.5732 102.722 22.8882 102.766 23.2251C102.81 23.562 102.839 23.8916 102.854 24.2139H103.03C103.103 23.6133 103.184 23.0933 103.271 22.6538C103.374 22.1997 103.469 21.8335 103.557 21.5552L107.886 7.229H116.653L106.809 33.7061C106.047 35.7275 105.161 37.4194 104.15 38.7817C103.154 40.1587 101.917 41.1914 100.437 41.8799C98.9722 42.583 97.1484 42.9346 94.9658 42.9346C94.1748 42.9346 93.4937 42.8906 92.9224 42.8027C92.3657 42.7295 91.875 42.6489 91.4502 42.561V35.8154C91.7725 35.874 92.168 35.9326 92.6367 35.9912C93.1055 36.0498 93.5962 36.0791 94.1089 36.0791C95.061 36.0791 95.8301 35.8887 96.416 35.5078C97.0166 35.127 97.5073 34.6216 97.8882 33.9917C98.269 33.3765 98.5986 32.71 98.877 31.9922L98.9648 31.7725L89.165 7.229Z" fill="#181818"/>
<path d="M86.0669 6.78955C86.5356 6.78955 87.0264 6.82617 87.5391 6.89941C88.0518 6.95801 88.4326 7.00928 88.6816 7.05322L87.9126 15.1611C87.6343 15.0879 87.2754 15.0293 86.8359 14.9854C86.3965 14.9268 85.7812 14.8975 84.9902 14.8975C84.4482 14.8975 83.8696 14.9487 83.2544 15.0513C82.6392 15.1538 82.0532 15.3735 81.4966 15.7104C80.9546 16.0327 80.5078 16.5308 80.1562 17.2046C79.8047 17.8638 79.6289 18.7573 79.6289 19.8853V32.124H71.0376V7.229H77.4316L78.772 11.2061H79.1895C79.6436 10.3857 80.2222 9.646 80.9253 8.98682C81.6431 8.31299 82.4414 7.77832 83.3203 7.38281C84.2139 6.9873 85.1294 6.78955 86.0669 6.78955Z" fill="#FD6E0A"/>
</svg>
