<svg width="44" height="44" viewBox="0 0 44 44" fill="none" xmlns="http://www.w3.org/2000/svg">
<g clip-path="url(#clip0_22_361)">
<path d="M0 0H44V44H0V0Z" fill="#F0DB4F"/>
<path d="M40.3989 33.5061C40.0768 31.4985 38.7677 29.813 34.8905 28.2403C33.5437 27.6213 32.0422 27.178 31.5947 26.1574C31.4357 25.5635 31.4148 25.2289 31.5152 24.8692C31.8038 23.7023 33.1966 23.3384 34.3008 23.673C35.0118 23.9114 35.6852 24.4594 36.0909 25.3335C37.9897 24.1039 37.9855 24.1122 39.3114 23.2674C38.8262 22.5145 38.5669 22.1673 38.249 21.8453C37.1072 20.5697 35.5513 19.913 33.0627 19.9632C32.6319 20.0176 32.197 20.0761 31.7662 20.1305C30.524 20.4442 29.3403 21.0966 28.646 21.9708C26.5631 24.3339 27.157 28.4704 29.6916 30.1727C32.1886 32.0465 35.8567 32.4731 36.3251 34.2255C36.781 36.3712 34.7483 37.0654 32.7281 36.8187C31.2392 36.5092 30.4111 35.7522 29.516 34.3761C27.8681 35.3297 27.8681 35.3297 26.1742 36.3043C26.5757 37.1826 26.9981 37.5799 27.6715 38.3411C30.8586 41.5742 38.8346 41.4153 40.2651 36.5217C40.3236 36.3544 40.7084 35.2335 40.3989 33.5061ZM23.9198 20.2225H19.8042C19.8042 23.7776 19.7875 27.3076 19.7875 30.8628C19.7875 33.1255 19.9046 35.2 19.5365 35.8358C18.9343 37.0863 17.3742 36.9316 16.6632 36.689C15.9396 36.3334 15.5715 35.8274 15.1449 35.1122C15.0278 34.9073 14.94 34.7483 14.9106 34.7358C13.794 35.4175 12.6814 36.1034 11.5646 36.7852C12.121 37.927 12.9407 38.9183 13.9905 39.5623C15.5589 40.5034 17.6669 40.792 19.8711 40.2859C21.3057 39.8677 22.5437 39.0019 23.192 37.6844C24.1289 35.9571 23.9281 33.8658 23.9198 31.5529C23.9407 27.7803 23.9198 24.0076 23.9198 20.2225Z" fill="#323330"/>
</g>
<defs>
<clipPath id="clip0_22_361">
<rect width="44" height="44" fill="white"/>
</clipPath>
</defs>
</svg>
