<svg width="40" height="44" viewBox="0 0 40 44" fill="none" xmlns="http://www.w3.org/2000/svg">
<g clip-path="url(#clip0_22_381)">
<path d="M18.1998 0.55857C19.2873 -0.063203 20.7039 -0.0660115 21.7906 0.55857C27.2573 3.64388 32.7258 6.72434 38.1917 9.81152C39.2197 10.3899 39.9074 11.5327 39.8969 12.7158V31.2782C39.9046 32.5104 39.1489 33.6804 38.0643 34.2457C32.6155 37.314 27.1695 40.3861 21.7217 43.4544C20.6116 44.0883 19.1666 44.0395 18.0912 43.3536C16.4577 42.4077 14.8213 41.4666 13.1876 40.5216C12.8538 40.3229 12.4774 40.1647 12.2417 39.8414C12.4501 39.5608 12.8227 39.5259 13.1254 39.4034C13.8073 39.1868 14.4336 38.8392 15.06 38.5019C15.2184 38.3936 15.4118 38.4351 15.5636 38.532C16.9605 39.3319 18.3451 40.1551 19.7466 40.9475C20.0456 41.1199 20.3484 40.891 20.6039 40.7487C25.9509 37.7303 31.3044 34.7233 36.6504 31.704C36.8485 31.6088 36.958 31.3988 36.9419 31.1821C36.9457 25.0588 36.9429 18.9343 36.9438 12.811C36.9664 12.5651 36.824 12.339 36.6014 12.2384C31.1715 9.18413 25.7444 6.12519 20.3154 3.07016C20.2213 3.00557 20.1099 2.97092 19.9958 2.97075C19.8816 2.97058 19.7701 3.00491 19.6759 3.06922C14.2469 6.12519 8.82073 9.18694 3.39176 12.241C3.16993 12.3418 3.02106 12.5642 3.04746 12.811C3.0484 18.9343 3.04746 25.0588 3.04746 31.183C3.03805 31.2888 3.0613 31.3949 3.11409 31.487C3.16688 31.5792 3.24666 31.6529 3.34271 31.6984C4.79146 32.519 6.24208 33.3337 7.69176 34.1515C8.50845 34.5905 9.5112 34.8514 10.411 34.515C11.2051 34.2306 11.7616 33.4213 11.7465 32.5792C11.754 26.4916 11.7427 20.403 11.7521 14.3164C11.7323 14.0461 11.9889 13.8229 12.252 13.8483C12.9481 13.8436 13.6451 13.8389 14.3412 13.8502C14.6318 13.8436 14.8318 14.1346 14.7958 14.4069C14.793 20.533 14.8033 26.6593 14.7911 32.7854C14.793 34.4181 14.1214 36.1947 12.6094 36.9935C10.7467 37.9573 8.44441 37.7529 6.60418 36.8288C5.0111 36.0346 3.4908 35.0973 1.92599 34.2465C0.83857 33.6843 0.0867029 32.5096 0.0943575 31.2784V12.7158C0.0829537 11.5082 0.797954 10.3447 1.85803 9.7747C7.30591 6.7039 12.7528 3.63077 18.1998 0.55857Z" fill="#8CC84B"/>
<path d="M22.9525 13.4169C25.3285 13.2641 27.8722 13.3264 30.0103 14.4955C31.6657 15.3914 32.5835 17.2717 32.6127 19.1086C32.5665 19.3564 32.3072 19.4931 32.0703 19.4761C31.3809 19.4752 30.6914 19.4855 30.002 19.4714C29.7096 19.4826 29.5396 19.2133 29.5029 18.9551C29.3048 18.0762 28.8249 17.2057 27.9967 16.7818C26.7252 16.146 25.251 16.178 23.8646 16.1912C22.8525 16.2449 21.7641 16.3324 20.9067 16.9269C20.2484 17.3772 20.0484 18.2862 20.2834 19.0183C20.5049 19.544 21.1124 19.7136 21.6095 19.8699C24.4729 20.6179 27.5073 20.5435 30.316 21.5279C31.4789 21.9292 32.6165 22.7093 33.0145 23.9254C33.5352 25.5553 33.3069 27.5034 32.1459 28.8119C31.2044 29.8886 29.8332 30.4747 28.4655 30.793C26.646 31.1982 24.7579 31.2085 22.9101 31.0286C21.1727 30.8307 19.3647 30.3748 18.0234 29.1925C16.8765 28.1978 16.3163 26.6479 16.3719 25.1521C16.3852 24.8995 16.637 24.7233 16.8793 24.7441C17.5735 24.7385 18.2677 24.7366 18.9619 24.745C19.2392 24.7252 19.4448 24.9646 19.459 25.2256C19.5871 26.063 19.9022 26.9419 20.6333 27.4384C22.0442 28.3476 23.8146 28.2853 25.4302 28.3107C26.7687 28.2514 28.2712 28.2335 29.3634 27.3499C29.9397 26.8459 30.1104 26.0028 29.9547 25.2774C29.786 24.665 29.1446 24.3796 28.5937 24.193C25.767 23.2999 22.6988 23.624 19.8994 22.614C18.7629 22.2128 17.6639 21.4544 17.2273 20.2882C16.6181 18.6378 16.8972 16.5963 18.1799 15.332C19.4306 14.0744 21.236 13.5901 22.9525 13.4167V13.4169Z" fill="#8CC84B"/>
</g>
<defs>
<clipPath id="clip0_22_381">
<rect width="40" height="44" fill="white"/>
</clipPath>
</defs>
</svg>
